<svg xmlns="http://www.w3.org/2000/svg" width="256" height="256" viewBox="0 0 256 256" xml:space="preserve">
  <g transform="translate(1.4065934065934016 1.4065934065934016) scale(2.81 2.81)">
    <path fill="#000000" fill-rule="nonzero" d="M 60.269 30.771 L 47.201 41.304 c -0.624 -0.367 -1.341 -0.593 -2.116 -0.593 c -2.318 0 -4.204 1.886 -4.204 4.204 c 0 1.794 1.135 3.318 2.721 3.921 v 23.038 c 0 0.819 0.664 1.484 1.484 1.484 s 1.483 -0.664 1.483 -1.484 V 48.836 c 1.585 -0.602 2.721 -2.126 2.721 -3.921 c 0 -0.457 -0.092 -0.889 -0.227 -1.301 l 13.07 -10.534 c 0.637 -0.514 0.738 -1.448 0.224 -2.086 C 61.84 30.357 60.907 30.256 60.269 30.771 z"/>
    <circle cx="45.084" cy="44.915" r="41.4" fill="none" stroke="#000000" stroke-width="7.2"/>
  </g>
</svg>
